HIERARCHY
ROOT hip
{
  OFFSET -4.0799 82.636 -36.5788
  CHANNELS 6 Xposition Yposition Zposition Zrotation Xrotation Yrotation
  JOINT abdomen
  {
    OFFSET 0 20.6881 -0.73152
    CHANNELS 3 Zrotation Xrotation Yrotation
    JOINT chest
    {
      OFFSET 0 11.7043 -0.48768
      CHANNELS 3 Zrotation Xrotation Yrotation
      JOINT neck
      {
        OFFSET 0 22.1894 -2.19456
        CHANNELS 3 Zrotation Xrotation Yrotation
        JOINT head
        {
          OFFSET -0.24384 7.07133 1.2192
          CHANNELS 3 Zrotation Xrotation Yrotation
          JOINT leftEye
          {
            OFFSET 4.14528 8.04674 8.04672
            CHANNELS 3 Zrotation Xrotation Yrotation
            End Site
            {
              OFFSET 1 0 0
            }
          }
          JOINT rightEye
          {
            OFFSET -3.6576 8.04674 8.04672
            CHANNELS 3 Zrotation Xrotation Yrotation
            End Site
            {
              OFFSET 1 0 0
            }
          }
        }
      }
      JOINT rCollar
      {
        OFFSET -2.68224 19.2634 -4.8768
        CHANNELS 3 Zrotation Xrotation Yrotation
        JOINT rShldr
        {
          OFFSET -8.77824 -1.95073 1.46304
          CHANNELS 3 Zrotation Xrotation Yrotation
          JOINT rForeArm
          {
            OFFSET -28.1742 -1.7115 0.48768
            CHANNELS 3 Zrotation Xrotation Yrotation
            JOINT rHand
            {
              OFFSET -22.5879 0.773209 7.07136
              CHANNELS 3 Zrotation Xrotation Yrotation
              JOINT rThumb1
              {
                OFFSET -1.2192 -0.487915 3.41376
                CHANNELS 3 Zrotation Xrotation Yrotation
                JOINT rThumb2
                {
                  OFFSET -3.37035 -0.52449 3.41376
                  CHANNELS 3 Zrotation Xrotation Yrotation
                  End Site
                  {
                    OFFSET -1.78271 -1.18214 1.43049
                  }
                }
              }
              JOINT rIndex1
              {
                OFFSET -7.75947 0.938293 5.60832
                CHANNELS 3 Zrotation Xrotation Yrotation
                JOINT rIndex2
                {
                  OFFSET -2.54057 -0.884171 1.56538
                  CHANNELS 3 Zrotation Xrotation Yrotation
                  End Site
                  {
                    OFFSET -1.62519 -0.234802 1.16502
                  }
                }
              }
              JOINT rMid1
              {
                OFFSET -8.24714 1.18213 3.41376
                CHANNELS 3 Zrotation Xrotation Yrotation
                JOINT rMid2
                {
                  OFFSET -3.10165 -0.590103 1.0647
                  CHANNELS 3 Zrotation Xrotation Yrotation
                  End Site
                  {
                    OFFSET -2.48547 -0.328903 0.83742
                  }
                }
              }
              JOINT rRing1
              {
                OFFSET -8.82822 0.546677 1.51678
                CHANNELS 3 Zrotation Xrotation Yrotation
                JOINT rRing2
                {
                  OFFSET -2.60934 -0.819778 -0.0198488
                  CHANNELS 3 Zrotation Xrotation Yrotation
                  End Site
                  {
                    OFFSET -2.33842 -0.294052 0.168128
                  }
                }
              }
              JOINT rPinky1
              {
                OFFSET -8.27202 -0.0477905 -0.4584
                CHANNELS 3 Zrotation Xrotation Yrotation
                JOINT rPinky2
                {
                  OFFSET -1.82734 -0.647385 -0.700984
                  CHANNELS 3 Zrotation Xrotation Yrotation
                  End Site
                  {
                    OFFSET -1.69225 -0.51767 -0.607171
                  }
                }
              }
            }
          }
        }
      }
      JOINT lCollar
      {
        OFFSET 2.68224 19.2634 -4.8768
        CHANNELS 3 Zrotation Xrotation Yrotation
        JOINT lShldr
        {
          OFFSET 8.77824 -1.95073 1.46304
          CHANNELS 3 Zrotation Xrotation Yrotation
          JOINT lForeArm
          {
            OFFSET 28.1742 -1.7115 0.48768
            CHANNELS 3 Zrotation Xrotation Yrotation
            JOINT lHand
            {
              OFFSET 22.5879 0.773209 7.07136
              CHANNELS 3 Zrotation Xrotation Yrotation
              JOINT lThumb1
              {
                OFFSET 1.2192 -0.487915 3.41376
                CHANNELS 3 Zrotation Xrotation Yrotation
                JOINT lThumb2
                {
                  OFFSET 3.37035 -0.52449 3.41376
                  CHANNELS 3 Zrotation Xrotation Yrotation
                  End Site
                  {
                    OFFSET 1.78271 -1.18214 1.43049
                  }
                }
              }
              JOINT lIndex1
              {
                OFFSET 7.75947 0.938293 5.60832
                CHANNELS 3 Zrotation Xrotation Yrotation
                JOINT lIndex2
                {
                  OFFSET 2.54057 -0.884171 1.56538
                  CHANNELS 3 Zrotation Xrotation Yrotation
                  End Site
                  {
                    OFFSET 1.62519 -0.234802 1.16502
                  }
                }
              }
              JOINT lMid1
              {
                OFFSET 8.24714 1.18213 3.41376
                CHANNELS 3 Zrotation Xrotation Yrotation
                JOINT lMid2
                {
                  OFFSET 3.10165 -0.590103 1.0647
                  CHANNELS 3 Zrotation Xrotation Yrotation
                  End Site
                  {
                    OFFSET 2.48547 -0.328903 0.83742
                  }
                }
              }
              JOINT lRing1
              {
                OFFSET 8.82822 0.546677 1.51678
                CHANNELS 3 Zrotation Xrotation Yrotation
                JOINT lRing2
                {
                  OFFSET 2.60934 -0.819778 -0.0198488
                  CHANNELS 3 Zrotation Xrotation Yrotation
                  End Site
                  {
                    OFFSET 2.33842 -0.294052 0.168128
                  }
                }
              }
              JOINT lPinky1
              {
                OFFSET 8.27202 -0.0477905 -0.4584
                CHANNELS 3 Zrotation Xrotation Yrotation
                JOINT lPinky2
                {
                  OFFSET 1.82734 -0.647385 -0.700984
                  CHANNELS 3 Zrotation Xrotation Yrotation
                  End Site
                  {
                    OFFSET 1.69225 -0.51767 -0.607171
                  }
                }
              }
            }
          }
        }
      }
    }
  }
  JOINT rButtock
  {
    OFFSET -8.77824 4.35084 1.2192
    CHANNELS 3 Zrotation Xrotation Yrotation
    JOINT rThigh
    {
      OFFSET 0 -1.70687 -2.19456
      CHANNELS 3 Zrotation Xrotation Yrotation
      JOINT rShin
      {
        OFFSET 0 -36.8199 0.73152
        CHANNELS 3 Zrotation Xrotation Yrotation
        JOINT rFoot
        {
          OFFSET 0.73152 -45.1104 -5.12064
          CHANNELS 3 Zrotation Xrotation Yrotation
          End Site
          {
            OFFSET -1.1221 -3.69964 12.103
          }
        }
      }
    }
  }
  JOINT lButtock
  {
    OFFSET 8.77824 4.35084 1.2192
    CHANNELS 3 Zrotation Xrotation Yrotation
    JOINT lThigh
    {
      OFFSET 0 -1.70687 -2.19456
      CHANNELS 3 Zrotation Xrotation Yrotation
      JOINT lShin
      {
        OFFSET 0 -36.8199 0.73152
        CHANNELS 3 Zrotation Xrotation Yrotation
        JOINT lFoot
        {
          OFFSET -0.73152 -45.1104 -5.12064
          CHANNELS 3 Zrotation Xrotation Yrotation
          End Site
          {
            OFFSET 1.1221 -3.69964 12.103
          }
        }
      }
    }
  }
}
MOTION
Frames:	5
Frame Time:	0.00833333
-10.7249 78.3155 -29.6901 -81.0886 55.6621 115.371 20.0681 7.79614 2.75725 6.41782 8.61932 1.02456 -0.161126 4.13098 -11.1797 -7.9719 -31.8151 -25.9987 -0 0 0 -0 0 0 -1.23839e-012 2.38528e-013 4.34991e-013 17.1529 -38.1405 56.5131 -11.5305 -5.12483 20.705 -0.000359883 -0.541676 -0.07613 -3.24473e-009 4.73091e-009 -3.09778e-009 -5.60473e-009 8.18845e-009 -5.36133e-009 -3.24471e-009 4.73091e-009 -3.09779e-009 7.73091 5.47488 0.417314 -3.24473e-009 4.73091e-009 -3.09778e-009 2.90554 0.965183 0.102902 -3.24472e-009 4.73091e-009 -3.09778e-009 10.2786 0.731801 0.0259123 -3.24472e-009 4.73091e-009 -3.09777e-009 2.22167 -0.733487 -0.20892 -1.23849e-012 2.38555e-013 4.34841e-013 -52.4038 69.3757 -30.6269 27.3537 -27.6001 -63.4282 0.000374213 0.552371 -0.0776332 6.07664e-009 -1.04862e-008 -7.98548e-010 1.04849e-008 -1.8088e-008 -1.37282e-009 6.07664e-009 -1.04862e-008 -7.98532e-010 -7.73091 5.47488 -0.417314 6.07664e-009 -1.04862e-008 -7.98545e-010 -2.90554 0.965183 -0.102902 6.07664e-009 -1.04862e-008 -7.9855e-010 -10.2786 0.731801 -0.0259123 6.07664e-009 -1.04862e-008 -7.98558e-010 -2.22167 -0.733487 0.20892 -2.03217e-016 0 -3.88251e-019 -151.018 -37.0427 -143.793 -0.92114 58.4146 1.60219 -1.48316 -3.22677 -8.52653 2.03217e-016 0 3.88251e-019 -126.99 -67.9771 -130.384 0.131275 32.3592 -0.865174 2.37983 7.36268 -28.9699 
-10.6858 78.3549 -29.7036 -81.1453 55.6805 115.418 20.0915 7.73494 2.77428 6.4224 8.6338 1.02603 -0.16595 4.158 -11.1777 -7.9772 -31.92 -26.0122 -0 0 0 -0 0 0 -1.07105e-012 1.39262e-013 3.81024e-013 16.9829 -38.0889 56.3915 -11.5643 -5.14777 20.7698 -0.00044448 -0.595497 -0.0836947 -3.46128e-009 4.23481e-009 -2.05288e-009 -5.97849e-009 7.32791e-009 -3.55378e-009 -3.46127e-009 4.23482e-009 -2.05289e-009 7.73091 5.47488 0.417314 -3.46128e-009 4.23482e-009 -2.05288e-009 2.90554 0.965183 0.102902 -3.46127e-009 4.23482e-009 -2.05288e-009 10.2786 0.731801 0.0259123 -3.46128e-009 4.23482e-009 -2.05288e-009 2.22167 -0.733487 -0.20892 -1.07116e-012 1.39285e-013 3.80871e-013 -52.3779 69.3902 -30.6571 27.3578 -27.6157 -63.4531 0.000245556 0.471993 -0.0663357 5.88267e-009 -8.5412e-009 -2.30902e-009 1.01531e-008 -1.4734e-008 -3.98525e-009 5.88266e-009 -8.5412e-009 -2.30901e-009 -7.73091 5.47488 -0.417314 5.88267e-009 -8.5412e-009 -2.30902e-009 -2.90554 0.965183 -0.102902 5.88266e-009 -8.5412e-009 -2.30902e-009 -10.2786 0.731801 -0.0259123 5.88267e-009 -8.5412e-009 -2.30903e-009 -2.22167 -0.733487 0.20892 -2.03217e-016 0 -3.88251e-019 -151.037 -37.0563 -143.762 -0.91869 58.376 1.60057 -1.49422 -3.26479 -8.5644 2.03217e-016 0 3.88251e-019 -126.954 -67.968 -130.428 0.130158 32.2858 -0.863014 2.36208 7.31314 -29.0398 
-10.6677 78.4011 -29.7169 -81.2869 55.6739 115.549 20.1235 7.59746 2.77825 6.42227 8.66869 1.01927 -0.200464 4.1693 -11.1706 -7.92711 -31.9906 -25.9858 -0 0 0 -0 0 0 -7.62909e-013 -4.87095e-014 2.89052e-013 16.7931 -38.017 56.2744 -11.5976 -5.17049 20.8339 -0.00050659 -0.636662 -0.0894807 -3.70624e-009 3.15493e-009 -3.03872e-011 -6.40035e-009 5.45541e-009 -5.49989e-011 -3.70623e-009 3.15493e-009 -3.03957e-011 7.73091 5.47488 0.417314 -3.70624e-009 3.15493e-009 -3.03915e-011 2.90554 0.965183 0.102902 -3.70624e-009 3.15493e-009 -3.03955e-011 10.2786 0.731801 0.0259123 -3.70624e-009 3.15494e-009 -3.03964e-011 2.22167 -0.733487 -0.20892 -7.63037e-013 -4.86952e-014 2.88865e-013 -52.4229 69.4094 -30.6001 27.3681 -27.6555 -63.5163 0.000115861 0.359275 -0.0504933 5.50269e-009 -4.73891e-009 -5.14169e-009 9.50291e-009 -8.17609e-009 -8.88511e-009 5.50269e-009 -4.73891e-009 -5.14168e-009 -7.73091 5.47488 -0.417314 5.50269e-009 -4.73891e-009 -5.14169e-009 -2.90554 0.965183 -0.102902 5.50269e-009 -4.73891e-009 -5.14169e-009 -10.2786 0.731801 -0.0259123 5.5027e-009 -4.73891e-009 -5.1417e-009 -2.22167 -0.733487 0.20892 -2.03217e-016 0 -3.88251e-019 -151.085 -37.0218 -143.736 -0.916046 58.3336 1.5991 -1.50783 -3.30824 -8.61604 2.03217e-016 0 3.88251e-019 -126.987 -67.8861 -130.631 0.129448 32.217 -0.858993 2.29385 7.18054 -29.0695 
-10.6712 78.4317 -29.7322 -81.4548 55.6668 115.703 20.1499 7.43849 2.78298 6.42169 8.7101 1.01098 -0.231574 4.17052 -11.1637 -7.88086 -32.0437 -25.9595 -0 0 0 -0 0 0 -4.36077e-013 -2.32208e-013 1.89852e-013 16.5926 -37.9467 56.1624 -11.6241 -5.18857 20.8848 -0.00054164 -0.661824 -0.0930176 -3.76821e-009 1.87545e-009 1.99843e-009 -6.50599e-009 3.23749e-009 3.45492e-009 -3.7682e-009 1.87545e-009 1.99842e-009 7.73091 5.47488 0.417314 -3.76821e-009 1.87544e-009 1.99842e-009 2.90554 0.965183 0.102902 -3.7682e-009 1.87545e-009 1.99841e-009 10.2786 0.731801 0.0259123 -3.76821e-009 1.87545e-009 1.99841e-009 2.22167 -0.733487 -0.20892 -4.36215e-013 -2.32203e-013 1.89626e-013 -52.4637 69.4319 -30.5445 27.3778 -27.6929 -63.576 4.97218e-005 0.250169 -0.035159 4.94376e-009 -7.59139e-010 -7.74863e-009 8.5435e-009 -1.31132e-009 -1.3395e-008 4.94375e-009 -7.59141e-010 -7.74862e-009 -7.73091 5.47488 -0.417314 4.94375e-009 -7.59143e-010 -7.74863e-009 -2.90554 0.965183 -0.102902 4.94375e-009 -7.59144e-010 -7.74863e-009 -10.2786 0.731801 -0.0259123 4.94376e-009 -7.59142e-010 -7.74864e-009 -2.22167 -0.733487 0.20892 -2.03217e-016 0 -3.88251e-019 -151.144 -36.97 -143.716 -0.913422 58.2899 1.59747 -1.51818 -3.33224 -8.66531 2.03217e-016 0 3.88251e-019 -127.064 -67.7889 -130.87 0.128778 32.1551 -0.855945 2.25284 7.09977 -29.0884 
-10.6695 78.4476 -29.7436 -81.5908 55.6837 115.824 20.1564 7.31282 2.80227 6.42489 8.74416 1.00782 -0.226183 4.16734 -11.1622 -7.89788 -32.096 -25.9732 -0 0 0 -0 0 0 -2.12644e-013 -3.18056e-013 1.14202e-013 16.3902 -37.9001 56.056 -11.6374 -5.1976 20.9102 -0.000546704 -0.667638 -0.0938348 -3.43575e-009 7.80557e-010 3.0623e-009 -5.93112e-009 1.34073e-009 5.29589e-009 -3.43575e-009 7.80558e-010 3.06229e-009 7.73091 5.47488 0.417314 -3.43575e-009 7.80552e-010 3.0623e-009 2.90554 0.965183 0.102902 -3.43575e-009 7.80556e-010 3.06229e-009 10.2786 0.731801 0.0259123 -3.43576e-009 7.80558e-010 3.06228e-009 2.22167 -0.733487 -0.20892 -2.1277e-013 -3.18055e-013 1.13953e-013 -52.4246 69.4569 -30.579 27.3801 -27.7017 -63.5899 4.00149e-005 0.180625 -0.0253853 4.2129e-009 1.71832e-009 -8.58192e-009 7.28431e-009 2.96322e-009 -1.48377e-008 4.2129e-009 1.71831e-009 -8.58191e-009 -7.73091 5.47488 -0.417314 4.2129e-009 1.71831e-009 -8.58191e-009 -2.90554 0.965183 -0.102902 4.2129e-009 1.71831e-009 -8.58192e-009 -10.2786 0.731801 -0.0259123 4.21291e-009 1.71831e-009 -8.58193e-009 -2.22167 -0.733487 0.20892 -2.03217e-016 0 -3.88251e-019 -151.194 -36.9316 -143.701 -0.911034 58.2478 1.59537 -1.51934 -3.31194 -8.69609 2.03217e-016 0 3.88251e-019 -127.166 -67.734 -131.026 0.127765 32.1023 -0.856698 2.31682 7.20563 -29.1253 
